<mxfile host="app.diagrams.net" agent="Mozilla/5.0 (Windows NT 10.0; Win64; x64) AppleWebKit/537.36 (KHTML, like Gecko) Chrome/129.0.0.0 Safari/537.36" version="24.7.17">
  <diagram name="Page-1" id="AHzIfN5BGczsZjoUz0uV">
    <mxGraphModel dx="2472" dy="1537" grid="1" gridSize="10" guides="1" tooltips="1" connect="1" arrows="1" fold="1" page="0" pageScale="1" pageWidth="850" pageHeight="1100" math="0" shadow="0">
      <root>
        <mxCell id="0" />
        <mxCell id="1" parent="0" />
        <mxCell id="gDEfal37TDESvINzWbnQ-1" value="Websites actualities" style="rounded=0;whiteSpace=wrap;html=1;dashed=1;" vertex="1" parent="1">
          <mxGeometry x="1040" y="90" width="240" height="130" as="geometry" />
        </mxCell>
        <mxCell id="gDEfal37TDESvINzWbnQ-2" value="Websites actualities" style="rounded=0;whiteSpace=wrap;html=1;dashed=1;" vertex="1" parent="1">
          <mxGeometry x="1030" y="100" width="240" height="130" as="geometry" />
        </mxCell>
        <mxCell id="gDEfal37TDESvINzWbnQ-3" value="Websites actualities" style="rounded=0;whiteSpace=wrap;html=1;dashed=1;" vertex="1" parent="1">
          <mxGeometry x="1020" y="110" width="240" height="130" as="geometry" />
        </mxCell>
        <mxCell id="gDEfal37TDESvINzWbnQ-4" value="gather service" style="rounded=0;whiteSpace=wrap;html=1;" vertex="1" parent="1">
          <mxGeometry x="680" y="160" width="160" height="160" as="geometry" />
        </mxCell>
        <mxCell id="gDEfal37TDESvINzWbnQ-5" value="logs" style="shape=datastore;whiteSpace=wrap;html=1;" vertex="1" parent="1">
          <mxGeometry x="475" y="480" width="90" height="140" as="geometry" />
        </mxCell>
        <mxCell id="gDEfal37TDESvINzWbnQ-6" value="raw clean actus" style="whiteSpace=wrap;html=1;aspect=fixed;" vertex="1" parent="1">
          <mxGeometry x="440" y="160" width="160" height="160" as="geometry" />
        </mxCell>
        <mxCell id="gDEfal37TDESvINzWbnQ-8" value="" style="endArrow=classic;html=1;rounded=0;exitX=1;exitY=0.5;exitDx=0;exitDy=0;entryX=0;entryY=0.5;entryDx=0;entryDy=0;" edge="1" parent="1" source="gDEfal37TDESvINzWbnQ-4" target="gDEfal37TDESvINzWbnQ-3">
          <mxGeometry width="50" height="50" relative="1" as="geometry">
            <mxPoint x="670" y="360" as="sourcePoint" />
            <mxPoint x="720" y="310" as="targetPoint" />
          </mxGeometry>
        </mxCell>
        <mxCell id="gDEfal37TDESvINzWbnQ-9" value="" style="endArrow=classic;html=1;rounded=0;exitX=0;exitY=0.5;exitDx=0;exitDy=0;entryX=1;entryY=0.5;entryDx=0;entryDy=0;" edge="1" parent="1" source="gDEfal37TDESvINzWbnQ-4" target="gDEfal37TDESvINzWbnQ-6">
          <mxGeometry width="50" height="50" relative="1" as="geometry">
            <mxPoint x="670" y="360" as="sourcePoint" />
            <mxPoint x="720" y="310" as="targetPoint" />
          </mxGeometry>
        </mxCell>
        <mxCell id="gDEfal37TDESvINzWbnQ-11" value="categorized actus" style="whiteSpace=wrap;html=1;aspect=fixed;" vertex="1" parent="1">
          <mxGeometry x="200" y="160" width="160" height="160" as="geometry" />
        </mxCell>
        <mxCell id="gDEfal37TDESvINzWbnQ-12" value="" style="endArrow=classic;html=1;rounded=0;exitX=0.5;exitY=0;exitDx=0;exitDy=0;entryX=1;entryY=1;entryDx=0;entryDy=0;" edge="1" parent="1" source="gDEfal37TDESvINzWbnQ-6" target="gDEfal37TDESvINzWbnQ-13">
          <mxGeometry width="50" height="50" relative="1" as="geometry">
            <mxPoint x="430" y="470" as="sourcePoint" />
            <mxPoint x="720" y="310" as="targetPoint" />
          </mxGeometry>
        </mxCell>
        <mxCell id="gDEfal37TDESvINzWbnQ-13" value="AI categorized&lt;div&gt;and&lt;/div&gt;&lt;div&gt;description&lt;/div&gt;" style="rhombus;whiteSpace=wrap;html=1;dashed=1;" vertex="1" parent="1">
          <mxGeometry x="310" y="-20" width="180" height="180" as="geometry" />
        </mxCell>
        <mxCell id="gDEfal37TDESvINzWbnQ-14" value="" style="endArrow=classic;html=1;rounded=0;exitX=0;exitY=1;exitDx=0;exitDy=0;entryX=0.5;entryY=0;entryDx=0;entryDy=0;" edge="1" parent="1" source="gDEfal37TDESvINzWbnQ-13" target="gDEfal37TDESvINzWbnQ-11">
          <mxGeometry width="50" height="50" relative="1" as="geometry">
            <mxPoint x="780" y="170" as="sourcePoint" />
            <mxPoint x="830" y="120" as="targetPoint" />
          </mxGeometry>
        </mxCell>
        <mxCell id="gDEfal37TDESvINzWbnQ-16" value="cleanup&lt;div&gt;actus&lt;/div&gt;" style="shape=datastore;whiteSpace=wrap;html=1;" vertex="1" parent="1">
          <mxGeometry x="235" y="480" width="90" height="140" as="geometry" />
        </mxCell>
        <mxCell id="gDEfal37TDESvINzWbnQ-18" value="API" style="whiteSpace=wrap;html=1;aspect=fixed;" vertex="1" parent="1">
          <mxGeometry x="-40" y="160" width="160" height="160" as="geometry" />
        </mxCell>
        <mxCell id="gDEfal37TDESvINzWbnQ-19" value="" style="endArrow=classic;html=1;rounded=0;exitX=0.5;exitY=1;exitDx=0;exitDy=0;entryX=0.5;entryY=0;entryDx=0;entryDy=0;" edge="1" parent="1" source="gDEfal37TDESvINzWbnQ-11" target="gDEfal37TDESvINzWbnQ-16">
          <mxGeometry width="50" height="50" relative="1" as="geometry">
            <mxPoint x="560" y="410" as="sourcePoint" />
            <mxPoint x="610" y="360" as="targetPoint" />
          </mxGeometry>
        </mxCell>
        <mxCell id="gDEfal37TDESvINzWbnQ-22" value="" style="endArrow=classic;html=1;rounded=0;exitX=0.5;exitY=1;exitDx=0;exitDy=0;entryX=0;entryY=0.5;entryDx=0;entryDy=0;" edge="1" parent="1" source="gDEfal37TDESvINzWbnQ-18" target="gDEfal37TDESvINzWbnQ-16">
          <mxGeometry width="50" height="50" relative="1" as="geometry">
            <mxPoint x="560" y="410" as="sourcePoint" />
            <mxPoint x="610" y="360" as="targetPoint" />
          </mxGeometry>
        </mxCell>
        <mxCell id="gDEfal37TDESvINzWbnQ-27" value="frontend&lt;div&gt;website&lt;/div&gt;" style="rounded=0;whiteSpace=wrap;html=1;" vertex="1" parent="1">
          <mxGeometry x="-280" y="160" width="80" height="160" as="geometry" />
        </mxCell>
        <mxCell id="gDEfal37TDESvINzWbnQ-30" value="" style="endArrow=classic;html=1;rounded=0;exitX=1;exitY=0.5;exitDx=0;exitDy=0;entryX=0;entryY=0.5;entryDx=0;entryDy=0;" edge="1" parent="1" source="gDEfal37TDESvINzWbnQ-27" target="gDEfal37TDESvINzWbnQ-18">
          <mxGeometry width="50" height="50" relative="1" as="geometry">
            <mxPoint x="-490" y="600" as="sourcePoint" />
            <mxPoint x="200" y="650" as="targetPoint" />
          </mxGeometry>
        </mxCell>
        <mxCell id="gDEfal37TDESvINzWbnQ-31" value="" style="endArrow=none;dashed=1;html=1;dashPattern=1 3;strokeWidth=2;rounded=0;exitX=0.5;exitY=0;exitDx=0;exitDy=0;entryX=0.5;entryY=1;entryDx=0;entryDy=0;" edge="1" parent="1" source="gDEfal37TDESvINzWbnQ-5" target="gDEfal37TDESvINzWbnQ-4">
          <mxGeometry width="50" height="50" relative="1" as="geometry">
            <mxPoint x="590" y="320" as="sourcePoint" />
            <mxPoint x="640" y="270" as="targetPoint" />
          </mxGeometry>
        </mxCell>
        <mxCell id="gDEfal37TDESvINzWbnQ-32" value="" style="endArrow=none;dashed=1;html=1;dashPattern=1 3;strokeWidth=2;rounded=0;exitX=0.5;exitY=0;exitDx=0;exitDy=0;entryX=0.5;entryY=1;entryDx=0;entryDy=0;" edge="1" parent="1" source="gDEfal37TDESvINzWbnQ-5" target="gDEfal37TDESvINzWbnQ-6">
          <mxGeometry width="50" height="50" relative="1" as="geometry">
            <mxPoint x="590" y="320" as="sourcePoint" />
            <mxPoint x="640" y="270" as="targetPoint" />
          </mxGeometry>
        </mxCell>
        <mxCell id="gDEfal37TDESvINzWbnQ-33" value="" style="endArrow=none;dashed=1;html=1;dashPattern=1 3;strokeWidth=2;rounded=0;exitX=0.5;exitY=0;exitDx=0;exitDy=0;entryX=0.5;entryY=1;entryDx=0;entryDy=0;" edge="1" parent="1" source="gDEfal37TDESvINzWbnQ-5" target="gDEfal37TDESvINzWbnQ-11">
          <mxGeometry width="50" height="50" relative="1" as="geometry">
            <mxPoint x="590" y="320" as="sourcePoint" />
            <mxPoint x="640" y="270" as="targetPoint" />
          </mxGeometry>
        </mxCell>
        <mxCell id="gDEfal37TDESvINzWbnQ-34" value="" style="endArrow=none;dashed=1;html=1;dashPattern=1 3;strokeWidth=2;rounded=0;entryX=0.5;entryY=1;entryDx=0;entryDy=0;exitX=0.5;exitY=0;exitDx=0;exitDy=0;" edge="1" parent="1" source="gDEfal37TDESvINzWbnQ-5" target="gDEfal37TDESvINzWbnQ-18">
          <mxGeometry width="50" height="50" relative="1" as="geometry">
            <mxPoint x="410" y="470" as="sourcePoint" />
            <mxPoint x="290" y="330" as="targetPoint" />
          </mxGeometry>
        </mxCell>
        <mxCell id="gDEfal37TDESvINzWbnQ-35" value="scheduler task" style="rounded=0;whiteSpace=wrap;html=1;" vertex="1" parent="1">
          <mxGeometry x="680" y="100" width="160" height="60" as="geometry" />
        </mxCell>
        <mxCell id="gDEfal37TDESvINzWbnQ-36" value="" style="endArrow=classic;html=1;rounded=0;exitX=0.5;exitY=0;exitDx=0;exitDy=0;entryX=0;entryY=0.5;entryDx=0;entryDy=0;curved=1;" edge="1" parent="1" source="gDEfal37TDESvINzWbnQ-18" target="gDEfal37TDESvINzWbnQ-4">
          <mxGeometry width="50" height="50" relative="1" as="geometry">
            <mxPoint x="620" y="80" as="sourcePoint" />
            <mxPoint x="670" y="40" as="targetPoint" />
            <Array as="points">
              <mxPoint x="440" y="-270" />
            </Array>
          </mxGeometry>
        </mxCell>
        <mxCell id="gDEfal37TDESvINzWbnQ-37" value="- access API" style="text;html=1;align=center;verticalAlign=middle;whiteSpace=wrap;rounded=0;" vertex="1" parent="1">
          <mxGeometry x="-130" y="210" width="80" height="30" as="geometry" />
        </mxCell>
        <mxCell id="gDEfal37TDESvINzWbnQ-38" value="- access articles" style="text;html=1;align=center;verticalAlign=middle;whiteSpace=wrap;rounded=0;rotation=50;" vertex="1" parent="1">
          <mxGeometry x="150" y="480" width="100" height="30" as="geometry" />
        </mxCell>
        <mxCell id="gDEfal37TDESvINzWbnQ-39" value="- force gathering" style="text;html=1;align=center;verticalAlign=middle;whiteSpace=wrap;rounded=0;rotation=61;" vertex="1" parent="1">
          <mxGeometry x="570" y="150" width="170" height="30" as="geometry" />
        </mxCell>
        <mxCell id="gDEfal37TDESvINzWbnQ-41" value="- scrap" style="text;html=1;align=center;verticalAlign=middle;whiteSpace=wrap;rounded=0;rotation=-20;" vertex="1" parent="1">
          <mxGeometry x="960" y="160" width="60" height="30" as="geometry" />
        </mxCell>
        <mxCell id="gDEfal37TDESvINzWbnQ-42" value="- store" style="text;html=1;align=center;verticalAlign=middle;whiteSpace=wrap;rounded=0;rotation=90;" vertex="1" parent="1">
          <mxGeometry x="260" y="440" width="60" height="30" as="geometry" />
        </mxCell>
        <mxCell id="gDEfal37TDESvINzWbnQ-43" value="- access" style="text;html=1;align=center;verticalAlign=middle;whiteSpace=wrap;rounded=0;rotation=31;" vertex="1" parent="1">
          <mxGeometry x="450" y="110" width="60" height="30" as="geometry" />
        </mxCell>
        <mxCell id="gDEfal37TDESvINzWbnQ-44" value="- store" style="text;html=1;align=center;verticalAlign=middle;whiteSpace=wrap;rounded=0;rotation=-30;" vertex="1" parent="1">
          <mxGeometry x="265" y="120" width="60" height="30" as="geometry" />
        </mxCell>
        <mxCell id="gDEfal37TDESvINzWbnQ-45" value="actu.me" style="rounded=0;whiteSpace=wrap;html=1;" vertex="1" parent="1">
          <mxGeometry x="-280" y="-300" width="320" height="60" as="geometry" />
        </mxCell>
        <mxCell id="gDEfal37TDESvINzWbnQ-46" value="" style="endArrow=none;dashed=1;html=1;dashPattern=1 3;strokeWidth=2;rounded=0;" edge="1" parent="1">
          <mxGeometry width="50" height="50" relative="1" as="geometry">
            <mxPoint x="-280" y="-210" as="sourcePoint" />
            <mxPoint x="-220" y="-210" as="targetPoint" />
          </mxGeometry>
        </mxCell>
        <mxCell id="gDEfal37TDESvINzWbnQ-47" value="store logs" style="text;html=1;align=left;verticalAlign=middle;whiteSpace=wrap;rounded=0;" vertex="1" parent="1">
          <mxGeometry x="-200" y="-220" width="120" height="20" as="geometry" />
        </mxCell>
        <mxCell id="gDEfal37TDESvINzWbnQ-48" value="" style="endArrow=classic;html=1;rounded=0;" edge="1" parent="1">
          <mxGeometry width="50" height="50" relative="1" as="geometry">
            <mxPoint x="-280" y="-170" as="sourcePoint" />
            <mxPoint x="-220" y="-170" as="targetPoint" />
          </mxGeometry>
        </mxCell>
        <mxCell id="gDEfal37TDESvINzWbnQ-49" value="access to a service" style="text;html=1;align=left;verticalAlign=middle;whiteSpace=wrap;rounded=0;" vertex="1" parent="1">
          <mxGeometry x="-200" y="-180" width="120" height="20" as="geometry" />
        </mxCell>
        <mxCell id="gDEfal37TDESvINzWbnQ-50" value="" style="rounded=0;whiteSpace=wrap;html=1;dashed=1;" vertex="1" parent="1">
          <mxGeometry x="-280" y="-140" width="60" height="20" as="geometry" />
        </mxCell>
        <mxCell id="gDEfal37TDESvINzWbnQ-51" value="outside service or website" style="text;html=1;align=left;verticalAlign=middle;whiteSpace=wrap;rounded=0;" vertex="1" parent="1">
          <mxGeometry x="-200" y="-140" width="160" height="20" as="geometry" />
        </mxCell>
      </root>
    </mxGraphModel>
  </diagram>
</mxfile>
